<svg xmlns="http://www.w3.org/2000/svg" viewBox="0 0 512 512">
  <!-- Background -->
  <rect width="512" height="512" rx="96" ry="96" fill="#ffffff"/>

  <!-- Tea surface -->
  <ellipse cx="256" cy="248" rx="160" ry="64" fill="#7cc46b"/>
  <ellipse cx="256" cy="248" rx="160" ry="64" fill="url(#teaShine)" opacity="0.35"/>

  <!-- Bowl -->
  <path d="M96 248c0 88 72 160 160 160s160-72 160-160" fill="#e6e6e6"/>
  <path d="M96 248c0 88 72 160 160 160s160-72 160-160" fill="none" stroke="#cfcfcf" stroke-width="8"/>
  <ellipse cx="256" cy="248" rx="168" ry="72" fill="none" stroke="#bfbfbf" stroke-width="10"/>

  <!-- Steam -->
  <path d="M208 140c-14 18-6 32 8 44m32-44c-14 18-6 32 8 44m32-44c-14 18-6 32 8 44" fill="none" stroke="#9e9e9e" stroke-width="8" stroke-linecap="round" opacity="0.7"/>

  <defs>
    <linearGradient id="teaShine" x1="0" x2="0" y1="0" y2="1">
      <stop offset="0%" stop-color="#ffffff" stop-opacity="0.8"/>
      <stop offset="100%" stop-color="#ffffff" stop-opacity="0"/>
    </linearGradient>
  </defs>
</svg>


